<svg version="1" xmlns="http://www.w3.org/2000/svg" width="682.667" height="682.667" viewBox="0 0 512.000000 512.000000"><path d="M33.1 12.1c-9 1.8-15.7 7.5-20 16.9-2 4.5-2.1 5.6-2.1 226.6 0 251.5-.8 228.7 8.3 237.9 9.4 9.4-14.6 8.5 237.2 8.5 246.3 0 227 .5 235.3-6.6 2.3-1.9 5.3-6 6.9-9.2l2.8-5.7-.3-224c-.4-213-.5-224.2-2.2-228.1-2.6-6.1-8.3-11.8-14.3-14.5l-5.2-2.4-221-.1c-121.5-.1-223 .2-225.4.7zM282 74.4c16.6 2.8 34.3 8.2 50.4 15.5 9.3 4.2 25.8 13.6 29.6 16.7 5.8 4.9 5.7 5.3-2.3 16.1-7.8 10.5-21.1 26.3-23.1 27.5-.6.4-5-1.6-9.6-4.3-25.2-14.6-52.6-21.8-78.8-20.6-20.2.9-34.5 4.8-56.2 15.3-7.4 3.6-14.8 6.8-16.6 7.1-6.2 1-11.4-3.5-21.7-18.9-8-11.8-9.7-16.6-7.3-20.3 4.9-7.5 41.1-24.5 64.9-30.5 9.8-2.5 17.9-3.9 30.7-5.4 6.5-.8 31.5.3 40 1.8zm-140.3 62.3c17 19.5 18.3 21.2 18.3 23.7 0 1.2-4 7.4-8.8 13.9-4.9 6.4-10.7 15.1-13.1 19.4-20.8 38.4-22 80.3-3.4 121.1l3.4 7.5 2.2-2c1.2-1 9.2-8 17.7-15.5 18.4-16.2 38.1-36 47.2-47.8 16.7-21.6 27.9-45 32.3-67.2.9-4.6 1.8-9.3 2-10.5.5-2.3 3.5-2.2 5.5.2.7.8 1 19 1.1 54.5v53.2l-2.5 5.2c-2 4-8.3 10.6-28.7 30.1-14.3 13.7-28.7 27.5-32 30.7-9.9 9.4-8.4 12.5 10.3 21.6 34.1 16.5 69.1 18.9 104.4 7.2 12.1-4.1 29.3-12.8 31.7-16.2 3.1-4.2 1.6-7.1-8.6-16.6-5.1-4.8-20.4-19.8-34.1-33.3l-24.9-24.8.7-46.8c.5-25.7 1.1-50.9 1.5-55.8l.6-9 1.3 4.5c3.7 13.6 8.9 27.7 13.2 36.4 13.6 27.2 33.9 51 75.3 88.5 11.7 10.6 15.1 13.1 15.8 12 .5-.8 3.2-5.9 5.9-11.4 21-42.7 13.3-96.3-19.6-136-10.1-12.2-10.3-13.2-4.1-20.3 2.3-2.7 6.8-8.3 10.1-12.5 3.2-4.2 8-9.7 10.7-12.2 8.3-7.8 12.1-6.1 25.4 11.6 15.2 19.9 23.9 35.9 30.4 55.5 17.9 53.8 10.9 115-18.2 159.7-10.4 16-32 39.3-47.4 51-21.5 16.5-48 28.2-74.3 32.9-15.1 2.7-43.4 2.9-59.5.4-73.4-11.3-122.2-48.9-147.5-113.8-9.1-23.2-12.9-40.8-13.7-62.3-1.7-49 17.7-98.6 51.9-133.3 4.5-4.5 8.3-8.2 8.4-8.2.1 0 6 6.6 13.1 14.7z"/></svg>